<svg width="256px" height="256px" viewBox="-4.56 -4.56 33.12 33.12" fill="none" xmlns="http://www.w3.org/2000/svg"><g id="SVGRepo_bgCarrier" stroke-width="0"><path transform="translate(-4.56, -4.56), scale(2.07)" fill="#0a248a" d="M9.166.33a2.25 2.25 0 00-2.332 0l-5.25 3.182A2.25 2.25 0 00.5 5.436v5.128a2.25 2.25 0 001.084 1.924l5.25 3.182a2.25 2.25 0 002.332 0l5.25-3.182a2.25 2.25 0 001.084-1.924V5.436a2.25 2.25 0 00-1.084-1.924L9.166.33z" strokewidth="0"></path></g><g id="SVGRepo_tracerCarrier" stroke-linecap="round" stroke-linejoin="round"></g><g id="SVGRepo_iconCarrier"> <path d="M6.29977 5H21L19 12H7.37671M20 16H8L6 3H3M9 20C9 20.5523 8.55228 21 8 21C7.44772 21 7 20.5523 7 20C7 19.4477 7.44772 19 8 19C8.55228 19 9 19.4477 9 20ZM20 20C20 20.5523 19.5523 21 19 21C18.4477 21 18 20.5523 18 20C18 19.4477 18.4477 19 19 19C19.5523 19 20 19.4477 20 20Z" stroke="#fff" stroke-width="2" stroke-linecap="round" stroke-linejoin="round"></path> </g></svg>