<svg width="256px" height="256px" viewBox="-5.52 -5.52 35.04 35.04" fill="none" xmlns="http://www.w3.org/2000/svg"><g id="SVGRepo_bgCarrier" stroke-width="0"><path transform="translate(-5.52, -5.52), scale(2.19)" fill="#35265a" d="M9.166.33a2.25 2.25 0 00-2.332 0l-5.25 3.182A2.25 2.25 0 00.5 5.436v5.128a2.25 2.25 0 001.084 1.924l5.25 3.182a2.25 2.25 0 002.332 0l5.25-3.182a2.25 2.25 0 001.084-1.924V5.436a2.25 2.25 0 00-1.084-1.924L9.166.33z" strokewidth="0"></path></g><g id="SVGRepo_tracerCarrier" stroke-linecap="round" stroke-linejoin="round"></g><g id="SVGRepo_iconCarrier"> <path d="M22 12.2039V13.725C22 17.6258 22 19.5763 20.8284 20.7881C19.6569 22 17.7712 22 14 22H10C6.22876 22 4.34315 22 3.17157 20.7881C2 19.5763 2 17.6258 2 13.725V12.2039C2 9.91549 2 8.77128 2.5192 7.82274C3.0384 6.87421 3.98695 6.28551 5.88403 5.10813L7.88403 3.86687C9.88939 2.62229 10.8921 2 12 2C13.1079 2 14.1106 2.62229 16.116 3.86687L18.116 5.10812C20.0131 6.28551 20.9616 6.87421 21.4808 7.82274" stroke="#fff" stroke-width="1.5" stroke-linecap="round"></path> <path d="M15 18H9" stroke="#fff" stroke-width="1.5" stroke-linecap="round"></path> </g></svg>