<svg width="256px" height="256px" viewBox="-3.84 -3.84 31.68 31.68" fill="none" xmlns="http://www.w3.org/2000/svg"><g id="SVGRepo_bgCarrier" stroke-width="0"><path transform="translate(-3.84, -3.84), scale(1.98)" fill="#0a248a" d="M9.166.33a2.25 2.25 0 00-2.332 0l-5.25 3.182A2.25 2.25 0 00.5 5.436v5.128a2.25 2.25 0 001.084 1.924l5.25 3.182a2.25 2.25 0 002.332 0l5.25-3.182a2.25 2.25 0 001.084-1.924V5.436a2.25 2.25 0 00-1.084-1.924L9.166.33z" strokewidth="0"></path></g><g id="SVGRepo_tracerCarrier" stroke-linecap="round" stroke-linejoin="round"></g><g id="SVGRepo_iconCarrier"> <path d="M11 14L3 14" stroke="#fff" stroke-width="1.5" stroke-linecap="round"></path> <path d="M11 18H3" stroke="#fff" stroke-width="1.5" stroke-linecap="round"></path> <path d="M20 16.5L17.5 14M17.5 14L15 16.5M17.5 14V20" stroke="#fff" stroke-width="1.5" stroke-linecap="round" stroke-linejoin="round"></path> <path d="M3 6L13.5 6M20 6L17.75 6" stroke="#fff" stroke-width="1.5" stroke-linecap="round"></path> <path d="M20 10L9.5 10M3 10H5.25" stroke="#fff" stroke-width="1.5" stroke-linecap="round"></path> </g></svg>